# xmcd CD database file
#
# Track frame offsets:
#	150
#	22500
#	38797
#	57202
#	77230
#	99472
#	123807
#	141135
#	160092
#	179635
#	201210
#
# Disc length: 2710 seconds
#
# Revision: 1
# Processed by: cddbd v1.5PL3 Copyright (c) Steve Scherf et al.
# Submitted via: CDex 1.51
#
DISCID=860a940b
DTITLE=馬渡松子 - バラブシュカ
DYEAR=1995
DGENRE=Pop
TTITLE0=バラブシュカ
TTITLE1=Woman Woman
TTITLE2=無題
TTITLE3=さんざんな恋をしても (Album Version)
TTITLE4=星の数
TTITLE5=Premonition
TTITLE6=バースデイがのしかかる
TTITLE7=デイドリーム ジェネレーション
TTITLE8=ペナルティ
TTITLE9=帰りたい (Remix)
TTITLE10=甘ちゃん ("OMAKE" Special)
EXTD=YEAR: 1995
EXTT0=
EXTT1=
EXTT2=
EXTT3=
EXTT4=
EXTT5=
EXTT6=
EXTT7=
EXTT8=
EXTT9=
EXTT10=
PLAYORDER=
